#!OML:ASF I:\Actors\actors\Patient Classification 2\Patient 1\Session 1\actor1.ASF
:FULLY-SPECIFIED
:DEGREES
1105
root 0.354079 18.7111 5.14176 5.0198 2.83306 -0.540384
lowerback 21.2834 0.06295 2.33744
upperback 11.666 0.541212 1.35403
thorax 0.800258 0.344687 0.0105034
lowerneck -23.6294 -2.35279 -1.79487
upperneck 21.8242 -3.38612 2.82746
head 11.0543 -1.31256 0.78112
rclavicle 1.59028e-015 3.18055e-015
rhumerus 4.53444 76.3189 -100.447
rradius 102.533
rwrist -49.5036
rhand 29.7821 -42.5326
rfingers 7.12502
rthumb 53.511 -61.696
lclavicle 1.59028e-015 3.18055e-015
lhumerus -48.5107 -67.9822 143.996
lradius 126.178
lwrist 45.8396
lhand 13.4322 344.888
lfingers 7.12502
lthumb 38.3739 10.5845
rfemur 1.70816 -1.35693 11.0512
rtibia 7.15625e-015
rfoot -15.1864 -16.1126
rtoes -9.6168
lfemur -17.7573 1.22033 -16.9312
ltibia 29.9832
lfoot -16.6474 2.15391
ltoes -56.0882
1106
root 0.399418 18.706 5.14253 5.03861 2.78166 -0.37211
lowerback 21.1733 0.0739677 2.36143
upperback 11.6436 0.557184 1.40868
thorax 0.830167 0.352106 0.0523491
lowerneck -23.7085 -2.37788 -1.83518
upperneck 21.8534 -3.41742 2.86784
head 11.0824 -1.32374 0.796871
rclavicle 7.95139e-015 7.95139e-015
rhumerus 5.16236 76.3752 -99.7369
rradius 102.561
rwrist -49.7571
rhand 29.7382 -42.4169
rfingers 7.12502
rthumb 53.4714 -61.6061
lclavicle 7.95139e-015 7.95139e-015
lhumerus -48.3138 -68.1219 143.805
lradius 126.112
lwrist 45.7474
lhand 13.3959 344.813
lfingers 7.12502
lthumb 38.3396 10.5192
rfemur 1.7114 -1.32516 10.7265
rtibia -6.36111e-015
rfoot -15.2758 -16.0685
rtoes -9.33647
lfemur -17.7776 1.23208 -17.2725
ltibia 30.0284
lfoot -16.7282 2.08017
ltoes -55.9794
1107
root 0.440866 18.6978 5.13948 5.10106 2.64511 -0.232114
lowerback 21.0465 0.105775 2.39872
upperback 11.6188 0.600305 1.43874
thorax 0.866579 0.374262 0.05529
lowerneck -23.7189 -2.39073 -1.83124
upperneck 21.7611 -3.43604 2.87608
head 11.0504 -1.33155 0.795956
rclavicle -1.31198e-014 -1.90833e-014
rhumerus 5.38517 76.2866 -99.4438
rradius 102.587
rwrist -49.9348
rhand 29.7891 -42.2224
rfingers 7.12502
rthumb 53.5173 -61.3816
lclavicle -1.31198e-014 -1.90833e-014
lhumerus -48.2689 -68.2713 143.757
lradius 126.117
lwrist 45.8187
lhand 13.3452 344.754
lfingers 7.12502
lthumb 38.2918 10.4733
rfemur 1.62761 -1.21602 10.4444
rtibia -1.51076e-014
rfoot -15.5009 -15.9877
rtoes -8.50601
lfemur -17.876 1.3419 -17.5735
ltibia 30.1237
lfoot -16.8142 1.95267
ltoes -55.6937
1108
root 0.478085 18.6879 5.13693 5.14414 2.48223 -0.0908466
lowerback 20.9674 0.0730581 2.49053
upperback 11.5769 0.569938 1.39167
thorax 0.861479 0.364379 -0.0406179
lowerneck -23.6884 -2.33984 -1.81207
upperneck 21.6516 -3.37362 2.89216
head 11.0023 -1.30115 0.808867
rclavicle 1.23246e-014 7.95139e-016
rhumerus 4.84314 76.1615 -100.046
rradius 102.6
rwrist -50.0318
rhand 29.8271 -42.1652
rfingers 7.12502
rthumb 53.5515 -61.3021
lclavicle 1.23246e-014 7.95139e-016
lhumerus -48.3278 -68.2745 143.733
lradius 126.161
lwrist 45.9823
lhand 13.4528 344.856
lfingers 7.12502
lthumb 38.3934 10.5473
rfemur 1.55352 -1.07854 10.1698
rtibia 0
rfoot -15.7084 -15.9238
rtoes -8.38264
lfemur -17.9637 1.53661 -17.8733
ltibia 30.2457
lfoot -16.8587 1.79081
ltoes -55.4834
1109
root 0.508898 18.6779 5.13726 5.16856 2.36251 0.0609692
lowerback 20.8709 -0.0163016 2.57224
upperback 11.5542 0.46357 1.31738
thorax 0.884456 0.317508 -0.144758
lowerneck -23.6812 -2.25237 -1.77042
upperneck 21.5607 -3.25559 2.85919
head 10.9626 -1.2497 0.809035
rclavicle -8.34896e-015 5.56597e-015
rhumerus 4.48846 76.1738 -100.499
rradius 102.59
rwrist -50.137
rhand 29.7725 -42.3765
rfingers 7.12502
rthumb 53.5023 -61.5455
lclavicle -8.34896e-015 5.56597e-015
lhumerus -48.2318 -68.2105 143.572
lradius 126.171
lwrist 46.1194
lhand 13.6021 344.987
lfingers 7.12502
lthumb 38.5342 10.6389
rfemur 1.52376 -0.980234 9.89661
rtibia -7.95139e-016
rfoot -15.8173 -15.8791
rtoes -8.70049
lfemur -18.0271 1.72803 -18.1633
ltibia 30.358
lfoot -16.8885 1.65276
ltoes -55.42
1110
root 0.533579 18.6702 5.13922 5.15096 2.2417 0.198758
lowerback 20.7706 -0.0722915 2.56418
upperback 11.5976 0.384096 1.29778
thorax 0.980336 0.27905 -0.144947
lowerneck -23.7445 -2.17732 -1.70388
upperneck 21.4534 -3.14482 2.75997
head 10.9282 -1.20741 0.779287
rclavicle 3.18055e-015 -1.11319e-014
rhumerus 4.58468 76.2038 -100.404
rradius 102.538
rwrist -50.3016
rhand 29.8744 -42.5764
rfingers 7.12502
rthumb 53.594 -61.6853
lclavicle 3.18055e-015 -1.11319e-014
lhumerus -48.1194 -68.1915 143.49
lradius 126.129
lwrist 46.157
lhand 13.5868 344.91
lfingers 7.12502
lthumb 38.5198 10.5661
rfemur 1.5387 -0.872019 9.64281
rtibia 1.74931e-014
rfoot -15.8513 -15.833
rtoes -8.67027
lfemur -18.0182 1.83385 -18.4051
ltibia 30.4289
lfoot -16.9562 1.59054
ltoes -55.3322
1111
root 0.552861 18.6661 5.13987 5.0943 2.10095 0.286535
lowerback 20.7293 -0.117163 2.53408
upperback 11.6678 0.316991 1.30984
thorax 1.07631 0.244568 -0.101652
lowerneck -23.8196 -2.11424 -1.6693
upperneck 21.3822 -3.05952 2.73247
head 10.9123 -1.16955 0.776791
rclavicle -5.96354e-015 -1.66979e-014
rhumerus 4.44639 76.1963 -100.497
rradius 102.471
rwrist -50.3644
rhand 30.1042 -42.6255
rfingers 7.12502
rthumb 53.8006 -61.5974
lclavicle -5.96354e-015 -1.66979e-014
lhumerus -48.2259 -68.1498 143.622
lradius 126.091
lwrist 46.1485
lhand 13.4698 344.692
lfingers 7.12502
lthumb 38.4094 10.3791
rfemur 1.57521 -0.73335 9.44744
rtibia -1.59028e-015
rfoot -15.7728 -15.8131
rtoes -8.53942
lfemur -17.9398 1.97133 -18.5629
ltibia 30.4403
lfoot -16.9998 1.53337
ltoes -55.2669
